<?xml version="1.0" encoding="utf-8"?>
<!-- Generator: Adobe Illustrator 26.0.3, SVG Export Plug-In . SVG Version: 6.00 Build 0)  -->
<svg version="1.0" id="katman_1" xmlns="http://www.w3.org/2000/svg" xmlns:xlink="http://www.w3.org/1999/xlink" x="0px" y="0px"
	 viewBox="0 0 600 450" style="enable-background:new 0 0 600 450;" xml:space="preserve">
<style type="text/css">
	.st0{fill:none;stroke:#1F3B70;stroke-width:17.6762;stroke-miterlimit:10;}
	.st1{fill:none;stroke:#1F3B70;stroke-width:17.6762;stroke-linecap:round;stroke-miterlimit:10;}
</style>
<g id="Group_1575" transform="translate(0.85 1.001)">
	<path id="Path_183" class="st0" d="M200.4,180.9H151c-7.8,0-14.1,6.3-14.1,14.1l0,0v14.1c0,7.8,6.3,14.1,14.1,14.1h0h42.4"/>
	<line id="Line_5" class="st0" x1="359.3" y1="181.6" x2="244.9" y2="181.6"/>
	<path id="Path_184" class="st0" d="M405.2,223.3h42.4c7.8,0,14.1-6.3,14.1-14.1l0,0V195c0-7.8-6.3-14.1-14.1-14.1l0,0h-49.4"/>
	<path id="Path_185" class="st0" d="M440.5,223.3l-24.5,110.5c-2.2,9.7-10.8,16.6-20.7,16.6h-192c-9.9,0-18.5-6.9-20.7-16.6
		l-24.5-110.5"/>
	<line id="Line_6" class="st1" x1="296.9" y1="244" x2="296.9" y2="316.8"/>
	<line id="Line_7" class="st1" x1="338.5" y1="244" x2="338.5" y2="316.8"/>
	<line id="Line_8" class="st1" x1="380.1" y1="244" x2="369.7" y2="316.8"/>
	<line id="Line_9" class="st1" x1="255.3" y1="244" x2="265.7" y2="316.8"/>
	<line id="Line_10" class="st1" x1="213.7" y1="244" x2="224.1" y2="316.8"/>
	<line id="Line_11" class="st1" x1="255.3" y1="98.4" x2="213.7" y2="202.4"/>
	<line id="Line_12" class="st1" x1="338.5" y1="98.4" x2="380.1" y2="202.4"/>
</g>
</svg>
